# xmcd
#
# Track frame offsets:
# 150
# 13095
# 25642
# 37932
# 50245
# 63570
# 72995
# 83132
# 96742
# 107725
# 120450
# 133045
# 142437
#
# Disc length: 2255 seconds
#
#
# Revision: 2
# Processed by: cddbd v1.4PL0 Copyright (c) Steve Scherf et al.
# Submitted via: FreeRIP 2.35 
#
DISCID=c108cd0d
DTITLE=James Brown - Sex Machine
DYEAR=1900
DGENRE=
TTITLE0=Just You and Me
TTITLE1=I Love You, Yes I Do
TTITLE2=I Don't Mind
TTITLE3=Come Over Here
TTITLE4=The Bells
TTITLE5=Love Don't Love Nobody
TTITLE6=Dancin' Little Thing
TTITLE7=Lost Someone
TTITLE8=And I Do Just What I Want
TTITLE9=So Long
TTITLE10=You Don't Have To Go
TTITLE11=Tell Me What You're Gonna Do
TTITLE12=Sex Machine
EXTD=Soul Music
EXTT0=
EXTT1=
EXTT2=
EXTT3=
EXTT4=
EXTT5=
EXTT6=
EXTT7=
EXTT8=
EXTT9=
EXTT10=
EXTT11=
EXTT12=
PLAYORDER=
